<svg width="512" height="512" viewBox="0 0 512 512" fill="none" xmlns="http://www.w3.org/2000/svg">
<rect width="512" height="512" fill="#1E1E1E"/>
<rect width="512" height="512" fill="#744EAA"/>
<rect width="59" height="57" fill="#553788"/>
<rect x="453" y="455" width="59" height="57" fill="#553788"/>
<g clip-path="url(#clip0_0_1)">
<path d="M512 455.111C512 486.528 486.528 512 455.111 512H56.8889C25.472 512 0 486.528 0 455.111V56.8889C0 25.472 25.472 0 56.8889 0H455.111C486.528 0 512 25.472 512 56.8889V455.111Z" fill="#553788"/>
<path d="M455.111 0H273.692C207.033 23.552 285.113 127.929 223.886 120.448C122.069 108.004 114.674 207.004 71.1111 191.118C54.1582 184.917 24.7893 155.691 0 177.024V455.111C0 486.528 25.472 512 56.8889 512H79.9858C100.878 493.81 93.1698 432.043 104.292 416C144.597 357.916 156.843 309.589 216.661 313.771C317.995 320.882 336.882 244.75 368.91 211.556C400.882 178.361 455.111 233.486 512 208.597V56.8889C512 25.472 486.528 0 455.111 0Z" fill="#744EAA"/>
<path d="M104.292 222.82C104.292 231.979 96.8676 239.417 87.6942 239.417C78.5351 239.417 71.1111 231.979 71.1111 222.82C71.1111 213.646 78.5351 206.222 87.7084 206.222C96.8818 206.222 104.292 213.646 104.292 222.82ZM226.674 156.885C226.674 165.476 219.705 172.444 211.115 172.444C202.524 172.444 195.556 165.476 195.556 156.885C195.556 148.295 202.524 141.326 211.115 141.326C219.705 141.326 226.674 148.295 226.674 156.885ZM331.548 75.5484C331.548 85.8595 323.186 94.208 312.889 94.208C302.564 94.208 294.215 85.8595 294.215 75.5484C294.215 65.2373 302.578 56.8889 312.889 56.8889C323.2 56.9031 331.548 65.2373 331.548 75.5484ZM358.229 124.004C358.229 130.148 353.252 135.111 347.122 135.111C340.978 135.111 336.028 130.148 336.028 124.004C336.028 117.86 340.992 112.896 347.122 112.896C353.252 112.896 358.229 117.86 358.229 124.004ZM280.889 280.889C280.889 288.754 274.532 295.111 266.667 295.111C258.802 295.111 252.444 288.754 252.444 280.889C252.444 273.024 258.802 266.667 266.667 266.667C274.532 266.667 280.889 273.024 280.889 280.889ZM454.229 290.446C454.229 297.813 448.256 303.772 440.903 303.772C433.522 303.772 427.563 297.813 427.563 290.446C427.563 283.079 433.536 277.12 440.903 277.12C448.256 277.12 454.229 283.079 454.229 290.446ZM464.896 155.108C464.896 164.196 457.529 171.548 448.455 171.548C439.367 171.548 432 164.196 432 155.108C432 146.02 439.381 138.667 448.455 138.667C457.529 138.667 464.896 146.02 464.896 155.108Z" fill="#AA8DD8"/>
<path d="M316.885 337.465C316.885 342.613 312.718 346.795 307.57 346.795C302.407 346.795 298.24 342.613 298.24 337.465C298.24 332.316 302.407 328.135 307.57 328.135C312.718 328.121 316.885 332.302 316.885 337.465ZM178.66 36.4373C178.66 42.8231 173.483 47.9858 167.111 47.9858C160.725 47.9858 155.548 42.8231 155.548 36.4373C155.548 30.0516 160.725 24.8889 167.111 24.8889C173.497 24.8889 178.66 30.0516 178.66 36.4373ZM79.7298 84.4516C79.7298 89.728 75.4489 94.0089 70.1724 94.0089C64.896 94.0089 60.6151 89.728 60.6151 84.4516C60.6151 79.1751 64.896 74.8942 70.1724 74.8942C75.4489 74.8942 79.7298 79.1751 79.7298 84.4516ZM408.448 369.892C408.448 376.277 403.285 381.44 396.9 381.44C390.5 381.44 385.337 376.292 385.337 369.892C385.337 363.506 390.5 358.357 396.9 358.357C403.271 358.343 408.448 363.506 408.448 369.892ZM97.6782 362.624C97.6782 369.963 91.7333 375.908 84.3947 375.908C77.056 375.908 71.1111 369.963 71.1111 362.624C71.1111 355.271 77.056 349.326 84.3947 349.326C91.7333 349.326 97.6782 355.271 97.6782 362.624ZM156.444 267.108C156.444 278.656 147.086 288 135.552 288C124.018 288 114.66 278.656 114.66 267.108C114.66 255.573 124.018 246.215 135.552 246.215C147.086 246.215 156.444 255.573 156.444 267.108ZM289.436 210.489C289.436 223.644 278.77 234.311 265.6 234.311C252.444 234.325 241.778 223.644 241.778 210.489C241.778 197.333 252.444 186.667 265.6 186.667C278.77 186.667 289.436 197.333 289.436 210.489ZM408.007 63.5591C408.007 69.2053 403.428 73.7849 397.781 73.7849C392.135 73.7849 387.556 69.2053 387.556 63.5591C387.556 57.9129 392.121 53.3333 397.781 53.3333C403.413 53.3333 408.007 57.9129 408.007 63.5591ZM487.993 42.6667C487.993 50.5173 481.636 56.8889 473.771 56.8889C465.906 56.8889 459.548 50.5173 459.548 42.6667C459.548 34.816 465.906 28.4444 473.771 28.4444C481.636 28.4444 487.993 34.816 487.993 42.6667Z" fill="#CBB7EA"/>
<path d="M161.18 107.548C161.18 114.588 155.477 120.292 148.437 120.292C141.397 120.292 135.708 114.588 135.708 107.548C135.708 100.508 141.412 94.8053 148.452 94.8053C155.492 94.8053 161.18 100.508 161.18 107.548ZM487.993 222.663C487.993 228.807 483.015 233.771 476.885 233.771C470.741 233.771 465.792 228.807 465.792 222.663C465.792 216.519 470.756 211.556 476.885 211.556C483.029 211.556 487.993 216.519 487.993 222.663ZM365.34 192.441C365.34 197.845 360.96 202.212 355.57 202.212C350.151 202.212 345.785 197.845 345.785 192.441C345.785 187.036 350.165 182.67 355.57 182.67C360.96 182.67 365.34 187.036 365.34 192.441ZM178.219 209.337C178.219 214.002 174.436 217.785 169.771 217.785C165.106 217.785 161.337 214.002 161.337 209.337C161.337 204.672 165.106 200.889 169.771 200.889C174.436 200.889 178.219 204.672 178.219 209.337ZM323.556 159.858C323.556 168.946 316.188 176.299 307.115 176.299C298.027 176.299 290.66 168.946 290.66 159.858C290.66 150.77 298.041 143.417 307.115 143.417C316.188 143.403 323.556 150.77 323.556 159.858ZM410.667 115.996C410.667 123.605 404.494 129.778 396.885 129.778C389.276 129.778 383.118 123.605 383.118 115.996C383.118 108.388 389.276 102.215 396.885 102.215C404.494 102.215 410.667 108.388 410.667 115.996ZM230.884 257.223C230.884 267.719 222.379 276.224 211.883 276.224C201.387 276.224 192.882 267.719 192.882 257.223C192.882 246.727 201.387 238.222 211.883 238.222C222.379 238.222 230.884 246.727 230.884 257.223ZM37.4471 343.168C37.4471 350.066 31.8436 355.669 24.9458 355.669C18.048 355.669 12.4445 350.08 12.4445 343.168C12.4445 336.27 18.048 330.667 24.9458 330.667C31.8436 330.667 37.4471 336.27 37.4471 343.168ZM85.3333 299.79C85.3333 304.882 81.1947 309.006 76.1174 309.006C71.0258 309.006 66.8871 304.882 66.8871 299.79C66.8871 294.699 71.0258 290.574 76.1174 290.574C81.1947 290.574 85.3333 294.699 85.3333 299.79ZM457.33 81.7778C457.33 88.1636 452.167 93.3262 445.781 93.3262C439.381 93.3262 434.219 88.1636 434.219 81.7778C434.219 75.392 439.381 70.2293 445.781 70.2293C452.167 70.2293 457.33 75.392 457.33 81.7778Z" fill="#F5F8FA"/>
<path d="M534.5 42C531 45.5 445 151 445 151V98.5C445 98.5 531.5 -2.49998 534.5 0.500011C537.5 3.5 538 38.5 534.5 42Z" fill="#F4900C"/>
</g>
<g clip-path="url(#clip1_0_1)">
<path d="M445 98.5C434.5 112.097 413.216 138.431 398.894 158.045C358.826 212.908 323.756 225.812 290.45 238.181C257.144 250.55 181.177 248.986 144.71 247.148C108.244 245.311 84.493 241.069 77.3005 251.506C55.2295 283.563 70.8745 319.556 102.773 324.47C127.742 328.313 202.985 321.111 238.213 318.003C273.451 314.884 311.965 304.342 325.185 299.26C338.404 294.189 349.114 290.02 352.453 281.998C355.792 273.965 372.151 252.419 392.174 219.87C403.472 201.515 434.5 167.275 445 151V98.5Z" fill="#F4900C"/>
<path d="M140.5 325.205C172 324.008 214.577 320.092 238.244 318.002C262.279 315.881 287.636 310.316 305.644 305.371L301.192 234.139C297.58 235.525 293.989 236.858 290.44 238.181C257.134 250.55 181.187 248.986 144.731 247.148C143.251 247.064 140.5 246.97 140.5 246.886V325.205ZM245.5 361V403C245.5 414.592 278.417 424 319 424C359.593 424 392.5 414.592 392.5 403V361H245.5Z" fill="#31373D"/>
<path d="M318.958 382C359.551 382 392.458 372.598 392.458 361C392.458 349.402 359.551 340 318.958 340C278.365 340 245.458 349.402 245.458 361C245.458 372.598 278.365 382 318.958 382Z" fill="#66757F"/>
</g>
<defs>
<clipPath id="clip0_0_1">
<rect width="512" height="512" fill="white"/>
</clipPath>
<clipPath id="clip1_0_1">
<rect width="378" height="378" fill="white" transform="translate(67 67)"/>
</clipPath>
</defs>
</svg>
