<svg width="200" height="124" viewBox="0 0 200 124" fill="none" xmlns="http://www.w3.org/2000/svg">
<path fill-rule="evenodd" clip-rule="evenodd" d="M0 1.23124C0 2.72935 50.4816 96.4912 52.6655 99.0504C54.8644 101.627 60.0161 101.627 62.954 99.0504C64.2126 97.9457 67.692 92.3834 70.6862 86.6892L76.131 76.3366L56.9885 40.8051C46.4598 21.2631 36.5437 4.11276 34.9506 2.69379C32.2414 0.279142 31.0253 0.112812 16.0276 0.112812C6.38046 0.112812 0 0.557886 0 1.23124ZM60.9782 1.54669C61.0103 2.3359 75.1241 29.0404 92.3425 60.892C117.975 108.31 124.348 119.275 127.511 121.402C131.046 123.778 132.68 124 146.707 124C162.04 124 162.04 124 166.092 115.97L170.144 107.94H151.384C138.115 107.94 132.09 107.521 130.799 106.507C129.795 105.718 116.963 82.6181 102.282 55.1737C87.6011 27.7293 74.3287 4.11276 72.7885 2.69379C69.6586 -0.190023 60.8724 -1.04347 60.9782 1.54669ZM127.945 1.82658C126.597 2.76835 120.731 12.3765 114.91 23.1764C104.326 42.8137 104.326 42.8137 106.957 48.4207C108.405 51.5041 109.959 54.0266 110.41 54.0266C111.34 54.0266 139.08 2.93583 139.08 1.22206C139.08 -0.527272 130.659 -0.0707245 127.945 1.82658ZM165.014 2.69379C163.401 4.11276 153.476 21.2482 142.957 40.7707L123.832 76.2666L129.294 86.6548C132.299 92.3685 135.787 97.9469 137.046 99.0504C139.798 101.464 145.18 101.677 147.034 99.4473C148.944 97.1508 200 2.39555 200 1.1475C200 0.578536 192.787 0.112812 183.972 0.112812C168.985 0.112812 167.754 0.280289 165.014 2.69379ZM79.5207 88.8939C74.3287 98.611 69.2701 106.871 68.2793 107.251C67.2897 107.63 58.2023 107.94 48.0862 107.94C37.9701 107.94 29.8701 108.328 30.0851 108.801C30.3 109.273 32.1609 112.888 34.2207 116.83C37.9644 124 37.9644 124 53.2954 124C73.8207 124 73.4207 124.284 86.0264 100.656C95.7115 82.5011 95.7115 82.5011 93.0931 77.7269C91.6529 75.1023 90.1345 72.5649 89.7184 72.0912C89.3011 71.6163 84.7126 79.178 79.5207 88.8939ZM90.1264 115.253C89.7724 116.172 89.6517 118.387 89.8563 120.175C90.2299 123.426 90.2299 123.426 100 123.426C109.77 123.426 109.77 123.426 109.77 118.838C109.77 114.249 109.77 114.249 100.269 113.916C92.7885 113.653 90.6322 113.937 90.1264 115.253Z" fill="white"/>
</svg>
